<svg xmlns="http://www.w3.org/2000/svg" xmlns:xlink="http://www.w3.org/1999/xlink" width="425" height="252" viewBox="0 0 425 252">
    <defs>
        <path id="a" d="M14.38 48c7.787 0 14.1-5.97 14.1-13.333 0-7.364-6.313-13.334-14.1-13.334S.28 27.303.28 34.667C.28 42.03 6.593 48 14.38 48zm25.38-21.333c7.787 0 14.1-5.97 14.1-13.334C53.86 5.97 47.547 0 39.76 0s-14.1 5.97-14.1 13.333c0 7.364 6.313 13.334 14.1 13.334zm33.84 0c7.787 0 14.1-5.97 14.1-13.334C87.7 5.97 81.387 0 73.6 0S59.5 5.97 59.5 13.333c0 7.364 6.313 13.334 14.1 13.334zM98.98 48c7.787 0 14.1-5.97 14.1-13.333 0-7.364-6.313-13.334-14.1-13.334s-14.1 5.97-14.1 13.334C84.88 42.03 91.193 48 98.98 48zM86.798 63.253c-4.907-5.44-9.024-10.08-13.988-15.52-2.594-2.88-5.922-5.76-9.87-7.04-.62-.213-1.24-.373-1.86-.48C59.67 40 58.145 40 56.68 40c-1.466 0-2.99 0-4.456.267-.62.106-1.24.266-1.86.48-3.949 1.28-7.22 4.16-9.87 7.04-4.908 5.44-9.025 10.08-13.988 15.52-7.388 6.986-16.469 14.72-14.777 25.546 1.636 5.44 5.753 10.827 13.141 12.374 4.118.8 17.259-2.347 31.246-2.347h1.015c13.987 0 27.129 3.093 31.246 2.347 7.388-1.547 11.505-6.987 13.141-12.374 1.748-10.88-7.332-18.613-14.72-25.6z"/>
    </defs>
    <g fill="none" fill-rule="evenodd">
        <path stroke="#000" stroke-opacity=".1" d="M1 1h423v250H1z"/>
        <text fill="#000" fill-opacity=".6" font-family="AppleSDGothicNeo-Medium, Apple SD Gothic Neo" font-size="36" font-weight="400" letter-spacing=".257" transform="translate(1 1)">
            <tspan x="195.801" y="202">펫</tspan>
        </text>
        <use fill="#E93A63" fill-rule="nonzero" transform="translate(155.82 55)" xlink:href="#a"/>
    </g>
</svg>
